<svg width="22" height="22" viewBox="0 0 22 22" fill="none" xmlns="http://www.w3.org/2000/svg">
<path d="M11 2.74464C5.67188 2.74464 1.375 7.07602 1.375 12.3509V12.3938C1.375 14.538 2.0625 16.5107 3.26562 18.0975L1.54688 19.8558C1.41797 19.9415 1.375 20.1131 1.375 20.3275C1.375 20.499 1.41797 20.6706 1.54688 20.7992L2.53516 21.7856C2.66406 21.9142 2.83594 22 3.00781 22C3.22266 22 3.39453 21.9142 3.48047 21.7856L5.24219 20.0702C6.83203 21.271 8.80859 21.9571 10.957 21.9571C13.1484 21.9571 15.125 21.271 16.7578 20.0702L18.4766 21.7856C18.5625 21.9142 18.7344 21.9571 18.9492 21.9571C19.1211 21.9571 19.293 21.9142 19.4219 21.7856L20.4102 20.7992C20.5391 20.6706 20.625 20.499 20.625 20.3275C20.625 20.1131 20.5391 19.9415 20.4102 19.8558L18.6914 18.0975C19.8945 16.5107 20.582 14.538 20.582 12.3938C20.582 12.3938 20.625 12.3938 20.625 12.3509C20.625 7.07602 16.2852 2.74464 11 2.74464ZM11 19.8986C6.78906 19.8986 3.4375 16.5536 3.4375 12.3509C3.4375 8.19103 6.78906 4.80312 11 4.80312C15.168 4.80312 18.5625 8.19103 18.5625 12.3509C18.5625 16.5536 15.168 19.8986 11 19.8986ZM15.125 11.3216H12.0312V8.23392C12.0312 7.89084 11.6875 7.54776 11.3438 7.54776H10.6562C10.2695 7.54776 9.96875 7.89084 9.96875 8.23392V11.3216H6.875C6.48828 11.3216 6.1875 11.6647 6.1875 12.0078V12.694C6.1875 13.0799 6.48828 13.3801 6.875 13.3801H9.96875V16.4678C9.96875 16.8538 10.2695 17.154 10.6562 17.154H11.3438C11.6875 17.154 12.0312 16.8538 12.0312 16.4678V13.3801H15.125C15.4688 13.3801 15.8125 13.0799 15.8125 12.694V12.0078C15.8125 11.6647 15.4688 11.3216 15.125 11.3216ZM4.125 0C1.84766 0 0 1.88694 0 4.11696C0 4.93177 0.214844 5.7037 0.644531 6.34698L6.91797 1.11501C6.1875 0.42885 5.19922 0.042885 4.125 0ZM17.875 0C16.7578 0.042885 15.7695 0.42885 15.0391 1.11501L21.3125 6.34698C21.7422 5.7037 21.957 4.93177 22 4.11696C22 1.88694 20.1094 0 17.875 0Z" fill="url(#paint0_linear_106_1347)"/>
<defs>
<linearGradient id="paint0_linear_106_1347" x1="11" y1="0" x2="11" y2="22" gradientUnits="userSpaceOnUse">
<stop stop-color="#4FE37E"/>
<stop offset="1" stop-color="#0DB14B"/>
</linearGradient>
</defs>
</svg>
