<svg width="22" height="25" viewBox="0 0 22 25" fill="none" xmlns="http://www.w3.org/2000/svg">
<path d="M21.5582 17.7246C20.6256 16.6992 18.8094 15.1855 18.8094 10.1562C18.8094 6.39648 16.1587 3.36914 12.5263 2.58789V1.5625C12.5263 0.732422 11.8391 0 11.0047 0C10.1211 0 9.43389 0.732422 9.43389 1.5625V2.58789C5.80149 3.36914 3.15083 6.39648 3.15083 10.1562C3.15083 15.1855 1.33463 16.6992 0.401993 17.7246C0.107475 18.0176 -0.0397845 18.4082 0.00930189 18.75C0.00930189 19.5801 0.598338 20.3125 1.58007 20.3125H20.3801C21.3619 20.3125 21.9509 19.5801 22 18.75C22 18.4082 21.8527 18.0176 21.5582 17.7246ZM3.29809 17.9688C4.3289 16.6504 5.45789 14.3555 5.50698 10.2051C5.50698 10.2051 5.50698 10.2051 5.50698 10.1562C5.50698 7.17773 7.9613 4.6875 11.0047 4.6875C13.9989 4.6875 16.5023 7.17773 16.5023 10.1562C16.5023 10.2051 16.4532 10.2051 16.4532 10.2051C16.5023 14.3555 17.6313 16.6504 18.6621 17.9688H3.29809ZM11.0047 25C12.7227 25 14.0971 23.6328 14.0971 21.875H7.86312C7.86312 23.6328 9.23754 25 11.0047 25Z" fill="#999999"/>
</svg>
