<svg width="22" height="22" viewBox="0 0 22 22" fill="none" xmlns="http://www.w3.org/2000/svg">
<path d="M13.5282 4.03629L14.2379 6.25403L10.246 10.2903C9.80242 10.6895 9.80242 11.3548 10.246 11.754C10.6452 12.1976 11.3105 12.1976 11.7097 11.754L15.746 7.7621L17.9637 8.47177C18.2742 8.60484 18.629 8.51613 18.8952 8.25L21.6895 5.45565C22.1774 4.96774 22 4.16935 21.3347 3.94758L18.8952 3.10484L18.0524 0.665323C17.8306 0 17.0323 -0.177419 16.5444 0.310484L13.75 3.10484C13.5726 3.28226 13.4395 3.50403 13.4395 3.77016C13.4395 3.85887 13.4839 3.94758 13.5282 4.03629ZM11 6.3871C11.3105 6.3871 11.6653 6.43145 11.9758 6.52016L12.6411 5.85484L12.1532 4.47984C12.1532 4.47984 12.1532 4.43548 12.1532 4.39113C11.754 4.34677 11.3992 4.25806 10.9556 4.25806C7.22984 4.25806 4.21371 7.27419 4.21371 11C4.21371 14.7702 7.22984 17.7419 10.9556 17.7419C14.7258 17.7419 17.6976 14.7258 17.6976 11C17.6976 10.6008 17.6532 10.246 17.6089 9.84677C17.5645 9.84677 17.5202 9.84677 17.5202 9.84677L16.1452 9.35887L15.4798 10.0242C15.5685 10.3347 15.5685 10.6895 15.5685 11C15.5685 13.5726 13.5282 15.6129 10.9556 15.6129C8.42742 15.6129 6.34274 13.5726 6.34274 11C6.34274 8.47177 8.42742 6.3871 11 6.3871ZM21.4677 7.71774L19.871 9.27016C19.8266 9.31452 19.7823 9.35887 19.6935 9.44758C19.7823 9.93548 19.871 10.4677 19.871 11C19.871 15.9234 15.879 19.871 11 19.871C6.07661 19.871 2.12903 15.9234 2.12903 11C2.12903 6.12097 6.07661 2.12903 11 2.12903C11.5323 2.12903 12.0645 2.21774 12.5968 2.30645C12.6411 2.21774 12.6855 2.17339 12.7298 2.12903L14.2823 0.532258C13.2621 0.221774 12.1532 0.0443548 11 0.0443548V0C4.92339 0 0 4.96774 0 11C0 17.0766 4.92339 22 11 22C17.0323 22 22 17.0766 22 11C22 9.84677 21.7782 8.7379 21.4677 7.71774Z" fill="white"/>
</svg>
