<svg width="16" height="12" viewBox="0 0 16 12" fill="none" xmlns="http://www.w3.org/2000/svg">
<path d="M5.625 5.71875C5.8125 5.90625 6.15625 5.90625 6.34375 5.71875L9 3.0625L11.7188 5.8125L10.8125 6.75C10.3125 7.21875 10.6562 8 11.3438 8H14.5C14.75 8 15 7.78125 15 7.5V4.375C15 3.6875 14.1875 3.34375 13.7188 3.84375L12.7812 4.75L9.34375 1.3125C9.15625 1.125 8.8125 1.125 8.625 1.3125L6 3.96875L4.375 2.34375C4.1875 2.15625 3.84375 2.15625 3.65625 2.34375L3.3125 2.6875C3.125 2.875 3.125 3.21875 3.3125 3.40625L5.625 5.71875ZM15.5 10.5H1.5V0.5C1.5 0.25 1.25 0 1 0H0.5C0.21875 0 0 0.25 0 0.5V11C0 11.5625 0.4375 12 1 12H15.5C15.75 12 16 11.7812 16 11.5V11C16 10.75 15.75 10.5 15.5 10.5Z" fill="white"/>
</svg>
