<svg width="17" height="14" viewBox="0 0 17 14" fill="none" xmlns="http://www.w3.org/2000/svg">
<path d="M12.5 4.25H5.50003C5.21878 4.25 5.00003 4.5 5.00003 4.75V5.25C5.00003 5.53125 5.21878 5.75 5.50003 5.75H12.5C12.75 5.75 13 5.53125 13 5.25V4.75C13 4.5 12.75 4.25 12.5 4.25ZM9.50003 7.25H5.50003C5.21878 7.25 5.00003 7.5 5.00003 7.75V8.25C5.00003 8.53125 5.21878 8.75 5.50003 8.75H9.50003C9.75003 8.75 10 8.53125 10 8.25V7.75C10 7.5 9.75003 7.25 9.50003 7.25ZM9.00003 0C4.56253 0 1.00003 2.9375 1.00003 6.5C1.00003 8 1.59378 9.375 2.62503 10.4688C2.18753 11.6875 1.21878 12.75 1.18753 12.75C0.968776 12.9688 0.937526 13.2812 1.03128 13.5625C1.15628 13.8438 1.43753 14 1.75003 14C3.65628 14 5.18753 13.2188 6.09378 12.5625C7.00003 12.8438 7.96878 13 9.00003 13C13.4063 13 17 10.0938 17 6.5C17 2.9375 13.4063 0 9.00003 0ZM9.00003 11.5C8.15628 11.5 7.31253 11.375 6.53128 11.125L5.81253 10.9062L5.21878 11.3438C4.78128 11.6562 4.15628 12 3.40628 12.25C3.65628 11.875 3.87503 11.4375 4.03128 11L4.37503 10.125L3.71878 9.4375C3.15628 8.84375 2.50003 7.84375 2.50003 6.5C2.50003 3.75 5.40628 1.5 9.00003 1.5C12.5625 1.5 15.5 3.75 15.5 6.5C15.5 9.28125 12.5625 11.5 9.00003 11.5Z" fill="#999999"/>
</svg>
