<svg width="22" height="22" viewBox="0 0 22 22" fill="none" xmlns="http://www.w3.org/2000/svg">
<path d="M9.66797 10.0117L11.8164 10.6133C11.9883 10.6563 12.0742 10.7852 12.0742 10.957C12.0742 11.1719 11.9453 11.3438 11.7305 11.3438H10.3125C10.1836 11.3438 10.0117 11.3008 9.88281 11.2148C9.66797 11.1289 9.41016 11.1719 9.28125 11.3008L8.50781 12.0742C8.29297 12.2891 8.33594 12.6758 8.59375 12.8477C8.98047 13.1484 9.45312 13.2773 9.96875 13.3633V14.0938C9.96875 14.4805 10.2695 14.7813 10.6563 14.7813H11.3438C11.6875 14.7813 12.0313 14.4805 12.0313 14.0938V13.3633C13.3203 13.1914 14.3086 12.0313 14.1367 10.6563C14.0078 9.66797 13.2344 8.89453 12.2891 8.59375L10.1406 7.99219C9.96875 7.94922 9.88281 7.77734 9.88281 7.64844C9.88281 7.43359 10.0547 7.26172 10.2266 7.26172H11.6445C11.8164 7.26172 11.9453 7.30469 12.0742 7.39063C12.2891 7.47656 12.5469 7.43359 12.6758 7.30469L13.4492 6.53125C13.6641 6.31641 13.6641 5.92969 13.3633 5.75781C12.9766 5.45703 12.5039 5.32813 12.0313 5.24219V4.46875C12.0313 4.125 11.6875 3.78125 11.3438 3.78125H10.6563C10.2695 3.78125 9.96875 4.125 9.96875 4.46875V5.24219C8.63672 5.41406 7.64844 6.57422 7.82031 7.94922C7.94922 8.9375 8.72266 9.71094 9.66797 10.0117ZM20.625 13.75H19.1211C19.8516 12.4609 20.2812 10.9141 20.2812 9.28125C20.2812 4.16797 16.1133 0 11 0C5.84375 0 1.71875 4.16797 1.71875 9.28125C1.71875 10.9141 2.10547 12.4609 2.83594 13.75H1.375C0.601562 13.75 0 14.5234 0 15.4258V20.3672C0 21.2695 0.601562 22 1.375 22H20.625C21.3555 22 22 21.2695 22 20.3672V15.4258C22 14.5234 21.3555 13.75 20.625 13.75ZM11 2.0625C14.9531 2.0625 18.2188 5.32813 18.2188 9.28125C18.2188 13.2773 14.9531 16.5 11 16.5C7.00391 16.5 3.78125 13.2773 3.78125 9.28125C3.78125 5.32813 7.00391 2.0625 11 2.0625ZM19.9375 19.9375H2.0625V15.8125H4.38281C4.89844 16.3711 5.5 16.8008 6.14453 17.1875H4.46875C4.25391 17.1875 4.125 17.3594 4.125 17.5312V18.2188C4.125 18.4336 4.25391 18.5625 4.46875 18.5625H17.5312C17.7031 18.5625 17.875 18.4336 17.875 18.2188V17.5312C17.875 17.3594 17.7031 17.1875 17.5312 17.1875H15.8125C16.457 16.8008 17.0586 16.3711 17.5742 15.8125H19.9375V19.9375Z" fill="white"/>
</svg>
