<svg width="17" height="16" viewBox="0 0 17 16" fill="none" xmlns="http://www.w3.org/2000/svg">
<path d="M14.7862 4.13333H13.9258C14.1488 3.74583 14.2763 3.32604 14.2763 2.84167C14.2763 1.29167 13.0016 0 11.472 0C10.1336 0 9.27323 0.710417 8.18976 2.22812C7.07442 0.710417 6.21402 0 4.90748 0C3.34601 0 2.10321 1.29167 2.10321 2.84167C2.10321 3.32604 2.19881 3.74583 2.42188 4.13333H1.52961C0.669202 4.13333 0 4.84375 0 5.68333V9.81667C0 10.1073 0.223067 10.3333 0.509868 10.3333H1.01974V13.8208C1.01974 14.7573 1.75267 15.5 2.67681 15.5H13.6071C14.5313 15.5 15.2961 14.7573 15.2961 13.8208V10.3333H15.8059C16.0609 10.3333 16.3158 10.1073 16.3158 9.81667V5.68333C16.3158 4.84375 15.6147 4.13333 14.7862 4.13333ZM7.39309 13.95H2.67681C2.61308 13.95 2.54934 13.8854 2.54934 13.8208V10.3333H6.11842V8.78333H1.52961V5.68333H7.39309V13.95ZM4.87562 4.13333C4.17455 4.13333 3.60095 3.58437 3.60095 2.84167C3.60095 2.13125 4.17455 1.55 4.87562 1.55C5.57669 1.55 6.08655 1.80833 7.58429 4.03646L7.64803 4.13333H4.87562ZM8.76336 4.03646C10.2611 1.80833 10.771 1.55 11.472 1.55C12.1731 1.55 12.7467 2.13125 12.7467 2.84167C12.7467 3.58437 12.1731 4.13333 11.472 4.13333H8.69963L8.76336 4.03646ZM14.7862 8.78333H10.1974V10.3333H13.7664V13.8208C13.7664 13.8854 13.7027 13.95 13.6071 13.95H8.9227V5.68333H14.7862V8.78333Z" fill="url(#paint0_linear_308_2291)"/>
<defs>
<linearGradient id="paint0_linear_308_2291" x1="8.1579" y1="0" x2="8.1579" y2="15.5" gradientUnits="userSpaceOnUse">
<stop stop-color="#4FE37E"/>
<stop offset="1" stop-color="#0DB14B"/>
</linearGradient>
</defs>
</svg>
