<svg width="20" height="17" viewBox="0 0 20 17" fill="none" xmlns="http://www.w3.org/2000/svg">
<path d="M13.7153 6.17578C13.9931 5.91016 13.7847 5.47852 13.4375 5.47852H11.1111V0.398438C11.1111 0.199219 10.9028 0 10.6944 0H9.30556C9.0625 0 8.88889 0.199219 8.88889 0.398438V5.47852H6.5625C6.18056 5.47852 5.97222 5.91016 6.25 6.17578L9.6875 9.46289C9.86111 9.62891 10.1042 9.62891 10.2778 9.46289L13.7153 6.17578ZM18.3333 11.6875V15.4062H1.66667V11.6875H5.83333L6.94444 13.8125H13.0556L14.1667 11.6875H18.3333ZM20 11.7871C20 11.3887 19.8264 11.0234 19.5833 10.7246L16.0417 6.93945C15.9722 6.83984 15.8681 6.77344 15.7639 6.67383C15.6944 6.64062 15.5556 6.64062 15.4861 6.70703L14.6528 7.53711C14.5833 7.60352 14.5486 7.73633 14.6528 7.80273L16.7708 10.0938H13.125L12.0139 12.2188H7.95139L6.84028 10.0938H3.19444L5.34722 7.80273C5.41667 7.73633 5.41667 7.60352 5.3125 7.53711L4.47917 6.70703C4.40972 6.64062 4.27083 6.64062 4.20139 6.70703C4.09722 6.77344 4.02778 6.83984 3.92361 6.93945L0.416667 10.7246C0.138889 11.0234 0 11.3887 0 11.7871V15.4062C0 16.3027 0.729167 17 1.66667 17H18.3333C19.2361 17 20 16.3027 20 15.4062V11.7871Z" fill="white"/>
</svg>
