<svg width="16" height="16" viewBox="0 0 16 16" fill="none" xmlns="http://www.w3.org/2000/svg">
<path d="M8.78572 5.21429C8.71429 5.14286 8.57143 5.14286 8.5 5.21429L3.64286 10.0714L3.42857 12.1071C3.39286 12.3929 3.60714 12.6071 3.89286 12.5714L5.92857 12.3571L10.7857 7.5C10.8571 7.42857 10.8571 7.28571 10.7857 7.21429L8.78572 5.21429ZM12.3214 4.78571L11.2143 3.67857C10.8929 3.35714 10.3571 3.35714 10.0357 3.67857L9.17857 4.53571C9.10714 4.60714 9.10714 4.75 9.17857 4.82143L11.1786 6.82143C11.25 6.89286 11.3929 6.89286 11.4643 6.82143L12.3214 5.96429C12.6429 5.64286 12.6429 5.10714 12.3214 4.78571ZM16 1.71429C16 0.785714 15.2143 0 14.2857 0H1.71429C0.75 0 0 0.785714 0 1.71429V14.2857C0 15.25 0.75 16 1.71429 16H14.2857C15.2143 16 16 15.25 16 14.2857V1.71429ZM14.2857 14.0714C14.2857 14.2143 14.1786 14.2857 14.0714 14.2857H1.92857C1.78571 14.2857 1.71429 14.2143 1.71429 14.0714V1.92857C1.71429 1.82143 1.78571 1.71429 1.92857 1.71429H14.0714C14.1786 1.71429 14.2857 1.82143 14.2857 1.92857V14.0714Z" fill="#999999"/>
</svg>
