<svg width="16" height="16" viewBox="0 0 16 16" fill="none" xmlns="http://www.w3.org/2000/svg">
<path d="M15.0933 0.90625L13.4683 2.53125C12.062 1.125 10.1245 0.25 7.99951 0.25C3.84326 0.25 0.437014 3.53125 0.249514 7.625C0.218264 7.84375 0.405764 8 0.624514 8H1.49951C1.68701 8 1.84326 7.875 1.87451 7.65625C2.06201 4.4375 4.71826 1.875 7.99951 1.875C9.68701 1.875 11.2183 2.5625 12.312 3.6875L10.6245 5.375C10.3745 5.625 10.562 6 10.8745 6H15.3745C15.562 6 15.7495 5.84375 15.7495 5.625V1.15625C15.7495 0.84375 15.3433 0.65625 15.0933 0.90625ZM15.3433 8H14.4683C14.2808 8 14.1245 8.15625 14.0933 8.375C13.9058 11.5938 11.2495 14.125 7.99951 14.125C6.28076 14.125 4.74951 13.4688 3.65576 12.3438L5.34326 10.6562C5.59326 10.4062 5.40576 10 5.09326 10H0.624514C0.405764 10 0.249514 10.1875 0.249514 10.375V14.875C0.249514 15.1875 0.624514 15.375 0.874514 15.125L2.49951 13.5C3.90576 14.9062 5.84326 15.75 7.99951 15.75C12.1245 15.75 15.5308 12.5 15.7183 8.40625C15.7495 8.1875 15.562 8 15.3433 8Z" fill="url(#paint0_linear_312_2348)"/>
<defs>
<linearGradient id="paint0_linear_312_2348" x1="7.9978" y1="0.25" x2="7.9978" y2="15.75" gradientUnits="userSpaceOnUse">
<stop stop-color="#4FE37E"/>
<stop offset="1" stop-color="#0DB14B"/>
</linearGradient>
</defs>
</svg>
