<svg width="22" height="22" viewBox="0 0 22 22" fill="none" xmlns="http://www.w3.org/2000/svg">
<path d="M21.0688 0.931452L18.7628 3.2379C16.7673 1.24194 14.0179 0 11.0024 0C5.10453 0 0.270923 4.65726 0.00485297 10.4677C-0.0394921 10.7782 0.226578 11 0.536994 11H1.77866C2.04473 11 2.26645 10.8226 2.3108 10.5121C2.57687 5.94355 6.3462 2.30645 11.0024 2.30645C13.3971 2.30645 15.57 3.28226 17.122 4.87903L14.7274 7.27419C14.3727 7.62903 14.6387 8.16129 15.0822 8.16129H21.4679C21.7339 8.16129 22 7.93952 22 7.62903V1.28629C22 0.842742 21.4235 0.576613 21.0688 0.931452ZM21.4235 11H20.1819C19.9158 11 19.6941 11.2218 19.6497 11.5323C19.3836 16.1008 15.6143 19.6935 11.0024 19.6935C8.56345 19.6935 6.39054 18.7621 4.83846 17.1653L7.2331 14.7702C7.58786 14.4153 7.32179 13.8387 6.87834 13.8387H0.536994C0.226578 13.8387 0.00485297 14.1048 0.00485297 14.371V20.7581C0.00485297 21.2016 0.536994 21.4677 0.891754 21.1129L3.1977 18.8065C5.19322 20.8024 7.94262 22 11.0024 22C16.856 22 21.6896 17.3871 21.9557 11.5766C22 11.2661 21.7339 11 21.4235 11Z" fill="#0DB14B"/>
</svg>
