<svg width="16" height="14" viewBox="0 0 16 14" fill="none" xmlns="http://www.w3.org/2000/svg">
<path d="M0 1.5V12.5C0 13.3438 0.65625 14 1.5 14H14.5C15.3125 14 16 13.3438 16 12.5V1.5C16 0.6875 15.3125 0 14.5 0H1.5C0.65625 0 0 0.6875 0 1.5ZM7.25 1.5V6.25H1.5V1.6875C1.5 1.59375 1.5625 1.5 1.6875 1.5H7.25ZM1.5 7.75H7.25V12.5H1.6875C1.5625 12.5 1.5 12.4375 1.5 12.3125V7.75ZM8.75 12.5V7.75H14.5V12.3125C14.5 12.4375 14.4062 12.5 14.3125 12.5H8.75ZM14.5 6.25H8.75V1.5H14.3125C14.4062 1.5 14.5 1.59375 14.5 1.6875V6.25Z" fill="url(#paint0_linear_56_66)"/>
<defs>
<linearGradient id="paint0_linear_56_66" x1="8" y1="0" x2="8" y2="14" gradientUnits="userSpaceOnUse">
<stop stop-color="#4FE37E"/>
<stop offset="1" stop-color="#0DB14B"/>
</linearGradient>
</defs>
</svg>
