<svg width="22" height="22" viewBox="0 0 22 22" fill="none" xmlns="http://www.w3.org/2000/svg">
<path fill-rule="evenodd" clip-rule="evenodd" d="M1.375 12.3509C1.375 7.07602 5.67188 2.74464 11 2.74464C16.2852 2.74464 20.625 7.07602 20.625 12.3509C20.625 12.3938 20.582 12.3938 20.582 12.3938C20.582 14.538 19.8945 16.5107 18.6914 18.0975L20.4102 19.8558C20.5391 19.9415 20.625 20.1131 20.625 20.3275C20.625 20.499 20.5391 20.6706 20.4102 20.7992L19.4219 21.7856C19.293 21.9142 19.1211 21.9571 18.9492 21.9571C18.7344 21.9571 18.5625 21.9142 18.4766 21.7856L16.7578 20.0702C15.125 21.271 13.1484 21.9571 10.957 21.9571C8.80859 21.9571 6.83203 21.271 5.24219 20.0702L3.48047 21.7856C3.39453 21.9142 3.22266 22 3.00781 22C2.83594 22 2.66406 21.9142 2.53516 21.7856L1.54688 20.7992C1.41797 20.6706 1.375 20.499 1.375 20.3275C1.375 20.1131 1.41797 19.9415 1.54688 19.8558L3.26563 18.0975C2.0625 16.5107 1.375 14.538 1.375 12.3938V12.3509ZM3.4375 12.3509C3.4375 16.5536 6.78906 19.8986 11 19.8986C15.168 19.8986 18.5625 16.5536 18.5625 12.3509C18.5625 8.19103 15.168 4.80312 11 4.80312C6.78906 4.80312 3.4375 8.19103 3.4375 12.3509ZM0 4.11696C0 1.88694 1.84766 0 4.125 0C5.19922 0.042885 6.1875 0.42885 6.91797 1.11501L0.644531 6.34698C0.214844 5.7037 0 4.93177 0 4.11696ZM15.0391 1.11501C15.7695 0.42885 16.7578 0.042885 17.875 0C20.1094 0 22 1.88694 22 4.11696C21.957 4.93177 21.7422 5.7037 21.3125 6.34698L15.0391 1.11501ZM7.24403 11.2684C6.50316 11.2684 5.90257 11.869 5.90257 12.6098C5.90257 13.3507 6.50316 13.9513 7.24403 13.9513H14.7562C15.4971 13.9513 16.0977 13.3507 16.0977 12.6098C16.0977 11.869 15.4971 11.2684 14.7562 11.2684H7.24403Z" fill="#0DB14B"/>
</svg>
