<svg width="14" height="16" viewBox="0 0 14 16" fill="none" xmlns="http://www.w3.org/2000/svg">
<path d="M9.37316 9.20312C8.52105 9.20312 8.13907 9.6875 6.75807 9.6875C5.34768 9.6875 4.9657 9.20312 4.11359 9.20312C1.93925 9.20312 0.17627 11.0498 0.17627 13.29V14.0469C0.17627 14.8643 0.793313 15.5 1.58665 15.5H11.9295C12.6934 15.5 13.3399 14.8643 13.3399 14.0469V13.29C13.3399 11.0498 11.5475 9.20312 9.37316 9.20312ZM11.9295 14.0469H1.58665V13.29C1.58665 11.8369 2.70321 10.6562 4.11359 10.6562C4.55434 10.6562 5.23015 11.1406 6.75807 11.1406C8.2566 11.1406 8.93241 10.6562 9.37316 10.6562C10.7835 10.6562 11.9295 11.8369 11.9295 13.29V14.0469ZM6.75807 8.71875C9.07933 8.71875 10.9892 6.78125 10.9892 4.35938C10.9892 1.96777 9.07933 0 6.75807 0C4.40742 0 2.52691 1.96777 2.52691 4.35938C2.52691 6.78125 4.40742 8.71875 6.75807 8.71875ZM6.75807 1.45312C8.28598 1.45312 9.57884 2.78516 9.57884 4.35938C9.57884 5.96387 8.28598 7.26562 6.75807 7.26562C5.20077 7.26562 3.9373 5.96387 3.9373 4.35938C3.9373 2.78516 5.20077 1.45312 6.75807 1.45312Z" fill="#999999"/>
</svg>
