<svg width="14" height="16" viewBox="0 0 14 16" fill="none" xmlns="http://www.w3.org/2000/svg">
<path d="M9.47559 9.20312C8.59766 9.20312 8.2041 9.6875 6.78125 9.6875C5.32812 9.6875 4.93457 9.20312 4.05664 9.20312C1.81641 9.20312 0 11.0498 0 13.29V14.0469C0 14.8643 0.635742 15.5 1.45312 15.5H12.1094C12.8965 15.5 13.5625 14.8643 13.5625 14.0469V13.29C13.5625 11.0498 11.7158 9.20312 9.47559 9.20312ZM12.1094 14.0469H1.45312V13.29C1.45312 11.8369 2.60352 10.6562 4.05664 10.6562C4.51074 10.6562 5.20703 11.1406 6.78125 11.1406C8.3252 11.1406 9.02148 10.6562 9.47559 10.6562C10.9287 10.6562 12.1094 11.8369 12.1094 13.29V14.0469ZM6.78125 8.71875C9.17285 8.71875 11.1406 6.78125 11.1406 4.35937C11.1406 1.96777 9.17285 0 6.78125 0C4.35937 0 2.42187 1.96777 2.42187 4.35937C2.42187 6.78125 4.35937 8.71875 6.78125 8.71875ZM6.78125 1.45312C8.35547 1.45312 9.6875 2.78516 9.6875 4.35937C9.6875 5.96387 8.35547 7.26562 6.78125 7.26562C5.17676 7.26562 3.875 5.96387 3.875 4.35937C3.875 2.78516 5.17676 1.45312 6.78125 1.45312Z" fill="url(#paint0_linear_308_5533)"/>
<defs>
<linearGradient id="paint0_linear_308_5533" x1="6.78125" y1="0" x2="6.78125" y2="15.5" gradientUnits="userSpaceOnUse">
<stop stop-color="#4FE37E"/>
<stop offset="1" stop-color="#0DB14B"/>
</linearGradient>
</defs>
</svg>
