<svg width="16" height="16" viewBox="0 0 16 16" fill="none" xmlns="http://www.w3.org/2000/svg">
<path d="M15.8438 3.67432C15.75 3.29932 15.4688 2.98682 15.0625 2.89307C14.6875 2.76807 14.2812 2.89307 14.0312 3.14307L12.1875 4.98682L11.1562 4.83057L11 3.79932L12.8438 1.98682C13.125 1.70557 13.2188 1.29932 13.125 0.924316C13 0.549316 12.7188 0.236816 12.3125 0.143066C10.6562 -0.263184 8.9375 0.205566 7.75 1.42432C6.5625 2.58057 6.09375 4.26807 6.46875 5.89307L0.75 11.6431C0.25 12.1118 0 12.7681 0 13.4556C0 14.1118 0.25 14.7681 0.75 15.2368C1.21875 15.7368 1.875 15.9868 2.5625 15.9868C3.21875 15.9868 3.875 15.7368 4.34375 15.2368L10.0938 9.51807C11.7188 9.89307 13.375 9.42432 14.5625 8.23682C15.75 7.04932 16.25 5.29932 15.8438 3.67432ZM13.5 7.17432C12.625 8.08057 11.3125 8.36182 10.0938 7.98682L9.65625 7.83057L3.3125 14.2056C2.90625 14.5806 2.1875 14.5806 1.78125 14.2056C1.59375 13.9868 1.5 13.7368 1.5 13.4556C1.5 13.1431 1.59375 12.8931 1.78125 12.6743L8.15625 6.33057L8.03125 5.89307C7.625 4.67432 7.90625 3.36182 8.8125 2.48682C9.4375 1.83057 10.2812 1.51807 11.1562 1.51807H11.1875L9.40625 3.29932L9.875 6.11182L12.6875 6.61182L14.5 4.79932C14.5 5.67432 14.1562 6.54932 13.5 7.17432ZM2.75 12.7681C2.46875 12.7681 2.25 12.9868 2.25 13.2681C2.25 13.5181 2.46875 13.7681 2.75 13.7681C3 13.7681 3.25 13.5181 3.25 13.2681C3.25 12.9868 3 12.7681 2.75 12.7681Z" fill="#999999"/>
</svg>
